<svg xmlns="http://www.w3.org/2000/svg" width="627.572" height="720.567" viewBox="0 0 166.045 190.65" xmlns:v="https://vecta.io/nano"><path d="M83.022 0L.75 47.5v95L83.022 190l82.272-47.5v-95z" fill="#fff"/><g fill="none" stroke="#000" stroke-width="1.5" stroke-dasharray="12, 12"><path d="M.75 47.5v95L83.022 190V95"/><path d="M83.022 190l82.272-47.5v-95"/></g><g transform="translate(-20.901 -60)"><text xml:space="preserve" transform="matrix(.989906 .578765 -.700608 .394946 502.7261 -335.64372)" style="white-space:pre" font-size="133.333" font-family="sans-serif" fill="#000" stroke="#000"><tspan x="147.293" y="887.879"><tspan font-family="Bahnschrift" stroke-width="2.147">D</tspan></tspan></text><path d="M171.232 831.509h32.292c2.517 0 4.753-.608 6.706-1.823s3.451-2.93 4.492-5.143c1.085-2.257 1.628-4.839 1.628-7.747h0c0-2.908-.543-5.469-1.628-7.682-1.042-2.257-2.539-3.993-4.492-5.208-1.91-1.215-4.145-1.823-6.706-1.823h-32.292v-12.63h31.771c5.469 0 10.265 1.128 14.388 3.385a23.42 23.42 0 0 1 9.635 9.635c2.3 4.123 3.451 8.898 3.451 14.323h0c0 5.425-1.15 10.221-3.451 14.388-2.3 4.123-5.534 7.313-9.7 9.57-4.123 2.257-8.898 3.385-14.323 3.385h-31.771zm-5.794-42.057h13.281v94.726h-13.281zm31.575 51.758l13.216-2.995 21.697 46.797-16.415-.144z" stroke-width="2.14" transform="matrix(1.019093 .588472 0 .818978 -139.26535 -623.22342)" stroke="#000"/><text xml:space="preserve" transform="matrix(1.029709 -.60448 0 .820142 403.08819 -623.4751)" style="white-space:pre" font-size="133.333" font-family="Bahnschrift" fill="#000" stroke="#000"><tspan x="-294.586" y="840.635" stroke-width="2.129">P</tspan></text><path d="M21.651 107.5l82.272 47.5 82.272-47.5L103.923 60l-82.272 47.5" fill="none" stroke="#000" stroke-width="1.5" stroke-dasharray="12, 12"/></g></svg>